<?xml version="1.0" encoding="UTF-8" standalone="no"?>
<svg
   version="1.1"
   viewBox="0 0 32 32"
   id="svg56"
   sodipodi:docname="plugin-metacity-decor.svg"
   width="32"
   height="32"
   inkscape:version="1.2.2 (b0a8486541, 2022-12-01)"
   xmlns:inkscape="http://www.inkscape.org/namespaces/inkscape"
   xmlns:sodipodi="http://sodipodi.sourceforge.net/DTD/sodipodi-0.dtd"
   xmlns="http://www.w3.org/2000/svg"
   xmlns:svg="http://www.w3.org/2000/svg">
  <defs
     id="defs60">
    <linearGradient
       id="linearGradient3914"
       inkscape:swatch="solid">
      <stop
         style="stop-color:#5f5c5a;stop-opacity:1;"
         offset="0"
         id="stop3912" />
    </linearGradient>
  </defs>
  <sodipodi:namedview
     id="namedview58"
     pagecolor="#ffffff"
     bordercolor="#666666"
     borderopacity="1.0"
     inkscape:showpageshadow="2"
     inkscape:pageopacity="0.0"
     inkscape:pagecheckerboard="0"
     inkscape:deskcolor="#d1d1d1"
     showgrid="false"
     inkscape:zoom="14.676609"
     inkscape:cx="-5.0761044"
     inkscape:cy="7.9718687"
     inkscape:window-width="1909"
     inkscape:window-height="996"
     inkscape:window-x="0"
     inkscape:window-y="28"
     inkscape:window-maximized="1"
     inkscape:current-layer="svg56" />
  <g
     transform="matrix(2.0371613,0,0,1.9299936,59.062432,-21.643048)"
     id="g50"
     style="fill:#56f2f2;fill-opacity:1">
    <path
       d="m -28.5,26.307 c 3.1111,0.0011 2.7936,-3.1806 4.3042,-4.1062 1.7505,-1.0726 3.2845,0.25648 3.5908,1.3503 0.38644,1.3802 -0.33783,2.5087 -1.3003,3.1189 -1.8464,1.1707 -6.3,0.75594 -6.5946,-0.36303 z"
       fill="#f1f2f2"
       id="path48"
       style="fill:#56f2f2;fill-opacity:1" />
  </g>
  <path
     d="m 31.100435,2.2281188 c 0.578619,-1.21849 -0.307221,-1.68578485 -1.374365,-0.6527671 -7.503505,7.2635004 -8.788988,7.320419 -15.806855,16.7448773 1.883108,0.06904 3.499617,1.256233 4.339292,2.969936 8.307776,-8.734077 9.244112,-13.4208761 12.842021,-19.0618731 z"
     id="path52"
     style="fill:#ff5555;stroke-width:2.24518;fill-opacity:1" />
  <rect
     style="opacity:0;fill:none;fill-opacity:1;stroke:#5f5c5a;stroke-opacity:1"
     id="rect901"
     width="4.5781784"
     height="1.8146412"
     x="3.6345103"
     y="2.9002619" />
  <path
     id="rect3879"
     style="opacity:0;fill:#60c7f1;stroke:#5f5c5a"
     d="m 5.7450659,2.6483381 c 1.8575941,0 3.3530579,0.1907474 3.3530579,0.4276847 v 0.7302998 c 0,0.2369374 -1.4954638,0.4276848 -3.3530579,0.4276848 -1.857594,0 -3.3530578,-0.1907474 -3.3530578,-0.4276848 V 3.0760228 c 0,-0.2369373 1.4954638,-0.4276847 3.3530578,-0.4276847 z" />
  <rect
     style="opacity:0.98;fill:#b3b3b3;fill-opacity:1;stroke:#b3b1af;stroke-width:1;stroke-dasharray:none;stroke-opacity:1"
     id="rect9639"
     width="6.6157851"
     height="2.3067617"
     x="21.617569"
     y="4.9801888"
     rx="3.3078926"
     ry="0.42768475"
     transform="rotate(38.7)" />
</svg>
